<?xml version="1.0" encoding="UTF-8" standalone="no"?>
<!DOCTYPE svg PUBLIC "-//W3C//DTD SVG 1.1//EN"
 "http://www.w3.org/Graphics/SVG/1.1/DTD/svg11.dtd">
<!-- Generated by graphviz version 2.38.0 (20140413.2041)
 -->
<!-- Title: %3 Pages: 1 -->
<svg width="1477pt" height="629pt"
 viewBox="0.00 0.00 1477.00 629.00" xmlns="http://www.w3.org/2000/svg" xmlns:xlink="http://www.w3.org/1999/xlink">
<g id="graph0" class="graph" transform="scale(1 1) rotate(0) translate(4 625)">
<title>%3</title>
<polygon fill="white" stroke="none" points="-4,4 -4,-625 1473,-625 1473,4 -4,4"/>
<text text-anchor="middle" x="734.5" y="-7.8" font-family="Times,serif" font-size="14.00">PANOPTES State Machine</text>
<!-- tracking -->
<g id="node1" class="node"><title>tracking</title>
<ellipse fill="none" stroke="black" cx="43" cy="-126" rx="43" ry="43"/>
<text text-anchor="middle" x="43" y="-122.3" font-family="Times,serif" font-size="14.00">tracking</text>
</g>
<!-- parking -->
<g id="node2" class="node"><title>parking</title>
<ellipse fill="none" stroke="black" cx="525" cy="-334" rx="43" ry="43"/>
<text text-anchor="middle" x="525" y="-330.3" font-family="Times,serif" font-size="14.00">parking</text>
</g>
<!-- tracking&#45;&gt;parking -->
<g id="edge1" class="edge"><title>tracking&#45;&gt;parking</title>
<path fill="none" stroke="black" d="M85.2182,-117.521C158.937,-104.717 315.506,-88.4617 421,-155 466.859,-183.925 494.48,-241.136 509.407,-283.124"/>
<polygon fill="black" stroke="black" points="506.115,-284.312 512.667,-292.638 512.737,-282.043 506.115,-284.312"/>
<text text-anchor="middle" x="295" y="-119.8" font-family="Times,serif" font-size="14.00">park</text>
</g>
<!-- observing -->
<g id="node3" class="node"><title>observing</title>
<ellipse fill="none" stroke="black" cx="211" cy="-293" rx="43" ry="43"/>
<text text-anchor="middle" x="211" y="-289.3" font-family="Times,serif" font-size="14.00">observing</text>
</g>
<!-- tracking&#45;&gt;observing -->
<g id="edge2" class="edge"><title>tracking&#45;&gt;observing</title>
<path fill="none" stroke="black" d="M74.0613,-156.242C101.796,-184.144 143.065,-225.662 172.852,-255.628"/>
<polygon fill="black" stroke="black" points="170.63,-258.358 180.162,-262.983 175.595,-253.423 170.63,-258.358"/>
<text text-anchor="middle" x="126" y="-232.8" font-family="Times,serif" font-size="14.00">observe</text>
</g>
<!-- parked -->
<g id="node4" class="node"><title>parked</title>
<ellipse fill="none" stroke="black" cx="695" cy="-334" rx="43" ry="43"/>
<text text-anchor="middle" x="695" y="-330.3" font-family="Times,serif" font-size="14.00">parked</text>
</g>
<!-- parking&#45;&gt;parked -->
<g id="edge3" class="edge"><title>parking&#45;&gt;parked</title>
<path fill="none" stroke="black" d="M568.393,-334C590.663,-334 618.152,-334 641.73,-334"/>
<polygon fill="black" stroke="black" points="641.911,-337.5 651.911,-334 641.911,-330.5 641.911,-337.5"/>
<text text-anchor="middle" x="610" y="-337.8" font-family="Times,serif" font-size="14.00">set_park</text>
</g>
<!-- observing&#45;&gt;parking -->
<g id="edge9" class="edge"><title>observing&#45;&gt;parking</title>
<path fill="none" stroke="black" d="M253.754,-298.487C310.184,-305.902 410.764,-319.12 472.024,-327.17"/>
<polygon fill="black" stroke="black" points="471.874,-330.68 482.244,-328.513 472.786,-323.74 471.874,-330.68"/>
<text text-anchor="middle" x="378" y="-323.8" font-family="Times,serif" font-size="14.00">park</text>
</g>
<!-- analyzing -->
<g id="node7" class="node"><title>analyzing</title>
<ellipse fill="none" stroke="black" cx="378" cy="-207" rx="43" ry="43"/>
<text text-anchor="middle" x="378" y="-203.3" font-family="Times,serif" font-size="14.00">analyzing</text>
</g>
<!-- observing&#45;&gt;analyzing -->
<g id="edge10" class="edge"><title>observing&#45;&gt;analyzing</title>
<path fill="none" stroke="black" d="M249.441,-273.485C273.406,-260.994 304.689,-244.69 330.277,-231.353"/>
<polygon fill="black" stroke="black" points="332.172,-234.312 339.422,-226.586 328.936,-228.104 332.172,-234.312"/>
<text text-anchor="middle" x="295" y="-263.8" font-family="Times,serif" font-size="14.00">analyze</text>
</g>
<!-- ready -->
<g id="node5" class="node"><title>ready</title>
<ellipse fill="none" stroke="black" cx="1048" cy="-357" rx="43" ry="43"/>
<text text-anchor="middle" x="1048" y="-353.3" font-family="Times,serif" font-size="14.00">ready</text>
</g>
<!-- parked&#45;&gt;ready -->
<g id="edge15" class="edge"><title>parked&#45;&gt;ready</title>
<path fill="none" stroke="black" d="M737.99,-336.751C802.203,-340.959 924.692,-348.986 994.622,-353.568"/>
<polygon fill="black" stroke="black" points="994.754,-357.084 1004.96,-354.245 995.212,-350.099 994.754,-357.084"/>
<text text-anchor="middle" x="868" y="-350.8" font-family="Times,serif" font-size="14.00">get_ready</text>
</g>
<!-- sleeping -->
<g id="node9" class="node"><title>sleeping</title>
<ellipse fill="none" stroke="black" cx="868" cy="-421" rx="43" ry="43"/>
<text text-anchor="middle" x="868" y="-417.3" font-family="Times,serif" font-size="14.00">sleeping</text>
</g>
<!-- parked&#45;&gt;sleeping -->
<g id="edge16" class="edge"><title>parked&#45;&gt;sleeping</title>
<path fill="none" stroke="black" d="M733.95,-353.308C759.498,-366.306 793.352,-383.53 820.516,-397.35"/>
<polygon fill="black" stroke="black" points="818.95,-400.481 829.45,-401.896 822.125,-394.242 818.95,-400.481"/>
<text text-anchor="middle" x="781" y="-393.8" font-family="Times,serif" font-size="14.00">sleep</text>
</g>
<!-- ready&#45;&gt;parking -->
<g id="edge4" class="edge"><title>ready&#45;&gt;parking</title>
<path fill="none" stroke="black" d="M1017.94,-387.826C1008.38,-397.484 997.5,-407.971 987,-417 955.187,-444.356 950.86,-459.901 911,-473 874.688,-484.933 862.321,-481.251 825,-473 728.967,-451.769 627.162,-396.428 570.586,-362.324"/>
<polygon fill="black" stroke="black" points="572.265,-359.249 561.902,-357.042 568.627,-365.229 572.265,-359.249"/>
<text text-anchor="middle" x="781" y="-471.8" font-family="Times,serif" font-size="14.00">park</text>
</g>
<!-- scheduling -->
<g id="node6" class="node"><title>scheduling</title>
<ellipse fill="none" stroke="black" cx="1221" cy="-207" rx="43" ry="43"/>
<text text-anchor="middle" x="1221" y="-203.3" font-family="Times,serif" font-size="14.00">scheduling</text>
</g>
<!-- ready&#45;&gt;scheduling -->
<g id="edge5" class="edge"><title>ready&#45;&gt;scheduling</title>
<path fill="none" stroke="black" d="M1080.76,-329.138C1108.87,-304.483 1150,-268.4 1180.28,-241.843"/>
<polygon fill="black" stroke="black" points="1182.91,-244.193 1188.12,-234.967 1178.29,-238.93 1182.91,-244.193"/>
<text text-anchor="middle" x="1134" y="-307.8" font-family="Times,serif" font-size="14.00">schedule</text>
</g>
<!-- scheduling&#45;&gt;parking -->
<g id="edge13" class="edge"><title>scheduling&#45;&gt;parking</title>
<path fill="none" stroke="black" d="M1177.84,-207C1143.23,-207 1092.94,-207 1049,-207 694,-207 694,-207 694,-207 637.063,-207 587.232,-253.992 556.929,-290.807"/>
<polygon fill="black" stroke="black" points="553.917,-288.969 550.394,-298.961 559.379,-293.346 553.917,-288.969"/>
<text text-anchor="middle" x="868" y="-210.8" font-family="Times,serif" font-size="14.00">park</text>
</g>
<!-- slewing -->
<g id="node8" class="node"><title>slewing</title>
<ellipse fill="none" stroke="black" cx="1426" cy="-207" rx="43" ry="43"/>
<text text-anchor="middle" x="1426" y="-203.3" font-family="Times,serif" font-size="14.00">slewing</text>
</g>
<!-- scheduling&#45;&gt;slewing -->
<g id="edge14" class="edge"><title>scheduling&#45;&gt;slewing</title>
<path fill="none" stroke="black" d="M1264.06,-207C1295.64,-207 1339.06,-207 1372.84,-207"/>
<polygon fill="black" stroke="black" points="1372.99,-210.5 1382.99,-207 1372.99,-203.5 1372.99,-210.5"/>
<text text-anchor="middle" x="1323" y="-210.8" font-family="Times,serif" font-size="14.00">slew_to_target</text>
</g>
<!-- analyzing&#45;&gt;tracking -->
<g id="edge6" class="edge"><title>analyzing&#45;&gt;tracking</title>
<path fill="none" stroke="black" d="M335.928,-197.009C275.073,-182.207 161.05,-154.472 94.9529,-138.394"/>
<polygon fill="black" stroke="black" points="95.7103,-134.976 85.1663,-136.013 94.0557,-141.778 95.7103,-134.976"/>
<text text-anchor="middle" x="211" y="-181.8" font-family="Times,serif" font-size="14.00">adjust_tracking</text>
</g>
<!-- analyzing&#45;&gt;parking -->
<g id="edge7" class="edge"><title>analyzing&#45;&gt;parking</title>
<path fill="none" stroke="black" d="M410.821,-234.871C432.392,-253.764 461.066,-278.878 484.155,-299.101"/>
<polygon fill="black" stroke="black" points="481.924,-301.8 491.752,-305.755 486.536,-296.534 481.924,-301.8"/>
<text text-anchor="middle" x="451" y="-281.8" font-family="Times,serif" font-size="14.00">park</text>
</g>
<!-- analyzing&#45;&gt;scheduling -->
<g id="edge8" class="edge"><title>analyzing&#45;&gt;scheduling</title>
<path fill="none" stroke="black" d="M410.386,-178.399C438.145,-156.137 480.837,-129 524,-129 524,-129 524,-129 1049,-129 1096.18,-129 1144.61,-153.879 1177.83,-175.535"/>
<polygon fill="black" stroke="black" points="1176.1,-178.591 1186.36,-181.244 1180,-172.773 1176.1,-178.591"/>
<text text-anchor="middle" x="781" y="-132.8" font-family="Times,serif" font-size="14.00">schedule</text>
</g>
<!-- slewing&#45;&gt;tracking -->
<g id="edge11" class="edge"><title>slewing&#45;&gt;tracking</title>
<path fill="none" stroke="black" d="M1405.11,-168.875C1373.92,-114.98 1308.09,-23 1222,-23 210,-23 210,-23 210,-23 159.348,-23 111.3,-58.0535 80.0561,-87.2619"/>
<polygon fill="black" stroke="black" points="77.2701,-85.085 72.4835,-94.5369 82.1196,-90.133 77.2701,-85.085"/>
<text text-anchor="middle" x="695" y="-26.8" font-family="Times,serif" font-size="14.00">track</text>
</g>
<!-- slewing&#45;&gt;parking -->
<g id="edge12" class="edge"><title>slewing&#45;&gt;parking</title>
<path fill="none" stroke="black" d="M1422.87,-250.079C1415.23,-353.252 1380.36,-606 1222,-606 694,-606 694,-606 694,-606 592.012,-606 549.879,-465.866 534.221,-386.767"/>
<polygon fill="black" stroke="black" points="537.575,-385.67 532.269,-376.5 530.698,-386.978 537.575,-385.67"/>
<text text-anchor="middle" x="958" y="-609.8" font-family="Times,serif" font-size="14.00">park</text>
</g>
<!-- sleeping&#45;&gt;ready -->
<g id="edge17" class="edge"><title>sleeping&#45;&gt;ready</title>
<path fill="none" stroke="black" d="M908.947,-406.637C935.17,-397.209 969.656,-384.809 997.6,-374.762"/>
<polygon fill="black" stroke="black" points="998.961,-377.992 1007.19,-371.315 996.592,-371.405 998.961,-377.992"/>
<text text-anchor="middle" x="958" y="-401.8" font-family="Times,serif" font-size="14.00">get_ready</text>
</g>
</g>
</svg>
